<svg xmlns="http://www.w3.org/2000/svg" viewBox="0 0 160 160" role="img" aria-labelledby="title desc">
  <title id="title">FreeCAD — анимированный логотип</title>
  <desc id="desc">Инженерная шестерня и изометрический куб, символизирующие открытое 3D-проектирование.</desc>
  <defs>
    <linearGradient id="freecad-gear" x1="0%" y1="0%" x2="100%" y2="100%">
      <stop offset="0%" stop-color="#ef4444">
        <animate attributeName="stop-color" values="#ef4444;#f97316;#ef4444" dur="7s" repeatCount="indefinite" />
      </stop>
      <stop offset="100%" stop-color="#fbbf24">
        <animate attributeName="stop-color" values="#fbbf24;#fb7185;#fbbf24" dur="7s" repeatCount="indefinite" />
      </stop>
    </linearGradient>
    <linearGradient id="freecad-cube" x1="0%" y1="0%" x2="100%" y2="100%">
      <stop offset="0%" stop-color="#38bdf8" />
      <stop offset="100%" stop-color="#1d4ed8" />
    </linearGradient>
  </defs>
  <rect width="160" height="160" rx="36" ry="36" fill="#111827" />
  <g transform="translate(80 80)">
    <g fill="none" stroke="url(#freecad-gear)" stroke-width="10" stroke-linecap="round" stroke-linejoin="round" opacity="0.9">
      <path d="M0 -48l8 8c6 6 16 6 22 0l8-8 12 20-10 6c-7 4-9 14-4 20l6 10-20 12-6-10c-4-7-14-9-20-4l-10 6-12-20 8-8c6-6 6-16 0-22l-8-8z">
        <animateTransform attributeName="transform" type="rotate" from="0" to="360" dur="12s" repeatCount="indefinite" />
      </path>
    </g>
    <g transform="translate(-10 8)">
      <polygon points="0 -12 20 -22 40 -12 20 -2" fill="url(#freecad-cube)" opacity="0.9" />
      <polygon points="0 -12 0 12 20 22 20 -2" fill="#2563eb" opacity="0.85" />
      <polygon points="40 -12 40 12 20 22 20 -2" fill="#1d4ed8" opacity="0.7" />
      <polyline points="0 -12 20 -2 40 -12" fill="none" stroke="#93c5fd" stroke-width="2" opacity="0.6">
        <animate attributeName="stroke-dasharray" values="0 60;60 0;0 60" dur="4s" repeatCount="indefinite" />
      </polyline>
    </g>
  </g>
</svg>
