<svg xmlns="http://www.w3.org/2000/svg" viewBox="0 0 160 160" role="img" aria-labelledby="title desc">
  <title id="title">Hugging Face — анимированный логотип</title>
  <desc id="desc">Дружелюбный смайл с объятиями и пульсирующими сердечками, символизирующий заботливые модели.</desc>
  <defs>
    <linearGradient id="hugging-face-gradient" x1="0%" y1="0%" x2="100%" y2="100%">
      <stop offset="0%" stop-color="#fcd34d" />
      <stop offset="100%" stop-color="#f97316" />
    </linearGradient>
  </defs>
  <rect width="160" height="160" rx="48" ry="48" fill="#0f172a" />
  <circle cx="80" cy="76" r="48" fill="url(#hugging-face-gradient)" />
  <g fill="#1f2937">
    <circle cx="62" cy="68" r="6">
      <animate attributeName="cy" values="66;68;66" dur="3s" repeatCount="indefinite" />
    </circle>
    <circle cx="98" cy="68" r="6">
      <animate attributeName="cy" values="70;68;70" dur="3s" repeatCount="indefinite" />
    </circle>
  </g>
  <path d="M56 88c14 18 34 18 48 0" fill="none" stroke="#1f2937" stroke-width="6" stroke-linecap="round" />
  <g fill="#facc15" opacity="0.85">
    <path d="M44 104c-10 12-14 30 4 34 10 2 20-4 22-16 2-12-6-24-16-24z">
      <animate attributeName="d" values="M44 104c-10 12-14 30 4 34 10 2 20-4 22-16 2-12-6-24-16-24z;M46 102c-12 14-12 32 4 36 10 2 18-6 20-18 2-12-6-22-24-18z;M44 104c-10 12-14 30 4 34 10 2 20-4 22-16 2-12-6-24-16-24z" dur="5s" repeatCount="indefinite" />
    </path>
    <path d="M116 104c10 12 14 30-4 34-10 2-20-4-22-16-2-12 6-24 16-24z">
      <animate attributeName="d" values="M116 104c10 12 14 30-4 34-10 2-20-4-22-16-2-12 6-24 16-24z;M114 102c12 14 12 32-4 36-10 2-18-6-20-18-2-12 6-22 24-18z;M116 104c10 12 14 30-4 34-10 2-20-4-22-16-2-12 6-24 16-24z" dur="5s" repeatCount="indefinite" />
    </path>
  </g>
  <g fill="#fb7185" opacity="0.8">
    <path d="M36 52c6-10 20-10 24 4 4-14 18-14 24-4 4 8-2 16-12 24-4 3-8 6-12 8-4-2-8-5-12-8-10-8-16-16-12-24z">
      <animate attributeName="opacity" values="0.4;1;0.4" dur="4s" repeatCount="indefinite" />
    </path>
    <path d="M100 48c6-8 18-8 22 4 4-12 16-12 22-4 4 6 0 14-10 22-4 4-8 6-12 8-4-2-8-4-12-8-10-8-14-16-10-22z" transform="translate(0 10)">
      <animate attributeName="opacity" values="1;0.5;1" dur="4.8s" repeatCount="indefinite" />
    </path>
  </g>
</svg>
