<svg xmlns="http://www.w3.org/2000/svg" viewBox="0 0 160 120" role="img">
  <title>Hugging Face логотип</title>
  <rect width="160" height="120" rx="24" fill="#fff7e6" />
  <circle cx="80" cy="60" r="38" fill="#ffcc4d" />
  <path fill="#664500" d="M64 56a6 6 0 1 1 12 0 6 6 0 0 1-12 0zm20 0a6 6 0 1 1 12 0 6 6 0 0 1-12 0z" />
  <path fill="#664500" d="M80 90c-12.2 0-22.6-7.8-26.4-18.7-.7-2 1-4.1 3.2-4.1h46.4c2.2 0 3.9 2.1 3.2 4.1C102.6 82.2 92.2 90 80 90z" />
  <path fill="#ffac33" d="M45 92c-6 0-11-4-12.4-9.6-.5-2 1.1-3.9 3.2-3.9h17.6c2.1 0 3.7 1.9 3.2 3.9C55.2 88 50.6 92 45 92zm70 0c-5.6 0-10.2-4-11.6-9.6-.5-2 1.1-3.9 3.2-3.9h17.6c2.1 0 3.7 1.9 3.2 3.9C125 88 120 92 115 92z" />
</svg>
