<svg xmlns="http://www.w3.org/2000/svg" viewBox="0 0 160 120" role="img">
  <title>NotebookLM логотип</title>
  <rect width="160" height="120" rx="24" fill="#0d1b2a" />
  <path fill="#4285f4" d="M44 30h36c8.8 0 16 7.2 16 16v48H60c-8.8 0-16-7.2-16-16V30z" />
  <path fill="#34a853" d="M120 30H96c-8.8 0-16 7.2-16 16v48h40c8.8 0 16-7.2 16-16V46c0-8.8-7.2-16-16-16z" />
  <path fill="#fbbc04" d="M80 30h16v50c0 5.5-4.5 10-10 10h-6V30z" />
  <path fill="#ea4335" d="M80 30H64v50c0 5.5 4.5 10 10 10h6V30z" />
  <circle cx="64" cy="48" r="6" fill="#fff" opacity="0.85" />
  <circle cx="96" cy="48" r="6" fill="#fff" opacity="0.85" />
</svg>
