<svg xmlns="http://www.w3.org/2000/svg" viewBox="0 0 160 160" role="img" aria-labelledby="title desc">
  <title id="title">Perplexity AI — анимированный логотип</title>
  <desc id="desc">Орбитальная сфера со светящимися траекториями, символизирующими поиск и генерацию ответов.</desc>
  <defs>
    <radialGradient id="perplexity-core" cx="50%" cy="50%" r="60%">
      <stop offset="0%" stop-color="#1d4ed8">
        <animate attributeName="stop-color" values="#1d4ed8;#2563eb;#1d4ed8" dur="5s" repeatCount="indefinite" />
      </stop>
      <stop offset="55%" stop-color="#0f172a" />
      <stop offset="100%" stop-color="#050814" />
    </radialGradient>
    <linearGradient id="perplexity-orbit" x1="0%" y1="100%" x2="100%" y2="0%">
      <stop offset="0%" stop-color="#38bdf8" />
      <stop offset="50%" stop-color="#8b5cf6" />
      <stop offset="100%" stop-color="#f472b6" />
    </linearGradient>
  </defs>
  <rect width="160" height="160" rx="40" ry="40" fill="#050816" />
  <circle cx="80" cy="80" r="52" fill="url(#perplexity-core)" />
  <g fill="none" stroke="url(#perplexity-orbit)" stroke-width="6" stroke-linecap="round">
    <path d="M40 90c8-36 72-64 92-30 14 24-8 54-28 64-20 10-62 14-72-18-6-20 6-44 24-54 20-10 50-6 62 14">
      <animate attributeName="stroke-dasharray" values="5 24;12 24;5 24" dur="4.5s" repeatCount="indefinite" />
      <animate attributeName="stroke-dashoffset" values="0;40" dur="4.5s" repeatCount="indefinite" />
    </path>
    <path d="M34 102c20 26 60 30 84 14 18-12 32-40 12-66">
      <animate attributeName="stroke-dasharray" values="4 16;14 20;4 16" dur="6s" repeatCount="indefinite" />
      <animate attributeName="stroke-dashoffset" values="0;-32" dur="6s" repeatCount="indefinite" />
    </path>
  </g>
  <g fill="#ffffff">
    <circle cx="118" cy="56" r="6">
      <animate attributeName="r" values="6;8;6" dur="3.2s" repeatCount="indefinite" />
    </circle>
    <circle cx="72" cy="108" r="4" opacity="0.7">
      <animate attributeName="r" values="4;6;4" dur="5s" repeatCount="indefinite" />
      <animate attributeName="opacity" values="0.7;0.35;0.7" dur="5s" repeatCount="indefinite" />
    </circle>
  </g>
  <circle cx="80" cy="80" r="18" fill="none" stroke="#93c5fd" stroke-width="2" opacity="0.6">
    <animateTransform attributeName="transform" attributeType="XML" type="rotate" from="0 80 80" to="360 80 80" dur="10s" repeatCount="indefinite" />
  </circle>
  <circle cx="80" cy="80" r="18" fill="#ffffff" opacity="0.65">
    <animate attributeName="r" values="18;24;18" dur="3.8s" repeatCount="indefinite" />
    <animate attributeName="opacity" values="0.5;0;0.5" dur="3.8s" repeatCount="indefinite" />
  </circle>
</svg>
