<svg xmlns="http://www.w3.org/2000/svg" viewBox="0 0 120 120" role="img">
  <title>Qwen AI логотип</title>
  <defs>
    <linearGradient id="qwen-gradient" x1="0%" y1="0%" x2="100%" y2="100%">
      <stop offset="0%" stop-color="#00f2fe" />
      <stop offset="40%" stop-color="#4facfe" />
      <stop offset="100%" stop-color="#736efe" />
    </linearGradient>
  </defs>
  <rect x="10" y="10" width="100" height="100" rx="26" fill="#050816" />
  <path fill="url(#qwen-gradient)" d="M60 22c-21 0-38 17-38 38s17 38 38 38c8.9 0 17-3 23.5-8.1l-12.2-12.2c-3.1 2.2-6.9 3.4-11.3 3.4-10.3 0-18.7-8.4-18.7-18.7S49.7 33.3 60 33.3c6.7 0 12.4 3.4 15.8 8.6l12.4-12.4C80.7 25.5 70.9 22 60 22z" />
  <path fill="#ffffff" opacity="0.9" d="M76.5 58.2c1.2 2.1 1.9 4.6 1.9 7.1 0 3.6-1.2 6.9-3.2 9.5l12 12c4.9-5.9 7.8-13.5 7.8-21.5 0-8-2.9-15.4-7.7-21.2l-12 12c0.5 0.9 0.9 1.9 1.2 2.9z" />
  <circle cx="60" cy="60" r="11" fill="#111b46" />
</svg>
