<svg xmlns="http://www.w3.org/2000/svg" viewBox="0 0 160 160" role="img">
  <title>Step3D.Lab placeholder</title>
  <defs>
    <linearGradient id="g" x1="0" x2="1" y1="0" y2="1">
      <stop offset="0%" stop-color="#6366f1" />
      <stop offset="50%" stop-color="#0ea5e9" />
      <stop offset="100%" stop-color="#14b8a6" />
    </linearGradient>
  </defs>
  <rect width="160" height="160" rx="32" fill="url(#g)" />
  <path d="M98 32a6 6 0 0 1 6 -6h34a6 6 0 0 1 6 6v34a6 6 0 0 1 -6 6h-34a6 6 0 0 1 -6 -6z" stroke="#fff" stroke-width="8" fill="none" stroke-linecap="round" stroke-linejoin="round" />
  <path d="M38 98h68a12 12 0 0 1 12 12v30a12 12 0 0 1 -12 12h-56a12 12 0 0 1 -12 -12v-80a12 12 0 0 1 12 -12h18a12 12 0 0 1 12 12v72" stroke="#fff" stroke-width="8" fill="none" stroke-linecap="round" stroke-linejoin="round" />
</svg>
