<svg width="230" height="180" viewBox="0 0 230 180" fill="none" xmlns="http://www.w3.org/2000/svg">
<path fill-rule="evenodd" clip-rule="evenodd" d="M40 10C40 4.47715 44.4772 0 50 0H80C85.5228 0 90 4.47715 90 10V25C90 30.5228 94.4772 35 100 35H130C135.523 35 140 30.5228 140 25V10C140 4.47715 144.477 0 150 0H180C185.523 0 190 4.47715 190 10V35V80C190 85.5228 194.477 90 200 90H220C225.523 90 230 94.4772 230 100V145V170C230 175.523 225.523 180 220 180H190C184.477 180 180 175.523 180 170V155C180 149.477 175.523 145 170 145H150C144.477 145 140 149.477 140 155V170C140 175.523 135.523 180 130 180H100C94.4772 180 90 175.523 90 170V155C90 149.477 85.5228 145 80 145H60C54.4772 145 50 149.477 50 155V170C50 175.523 45.5228 180 40 180H10C4.47715 180 0 175.523 0 170V145V100C0 94.4772 4.47715 90 10 90H30C35.5228 90 40 85.5228 40 80V35V10ZM134 75C134 69.4772 138.477 65 144 65H161.5C167.023 65 171.5 69.4772 171.5 75V92.5C171.5 98.0228 167.023 102.5 161.5 102.5H144C138.477 102.5 134 98.0228 134 92.5V75ZM96.5 75C96.5 69.4772 92.0228 65 86.5 65H69C63.4772 65 59 69.4772 59 75V92.5C59 98.0228 63.4772 102.5 69 102.5H86.5C92.0228 102.5 96.5 98.0228 96.5 92.5V75Z" fill="black"/>
</svg>
